<mxfile host="app.diagrams.net" modified="2023-09-06T03:37:02.314Z" agent="Mozilla/5.0 (Windows NT 10.0; Win64; x64) AppleWebKit/537.36 (KHTML, like Gecko) Chrome/116.0.0.0 Safari/537.36" version="21.3.7" etag="om-oR_GCXe3VHPXg4_e3" type="github">
  <diagram name="Page-1" id="KxdFimYHp1ML-J0l2MDE">
    <mxGraphModel>
      <root>
        <mxCell id="0" />
        <mxCell id="1" parent="0" />
      </root>
    </mxGraphModel>
  </diagram>
</mxfile>
